# xmcd
#
# Track frame offsets:
#	150
#	18710
#	33395
#	56910
#	75395
#	92202
#	108453
#	130628
#	145605
#	165153
#	180240
#	208430
#
# Disc length: 3158 seconds
#
# Revision: 1
# Processed by: cddbd v1.5.2PL0 Copyright (c) Steve Scherf et al.
# Submitted via: audiograbber 1.83.01
#
DISCID=990c540c
DTITLE=Sister Sparrow and The Dirty Birds - Sister Sparrow and The Dirty Birds
DYEAR=2010
DGENRE=Blues
TTITLE0=Untie My Shoelaces
TTITLE1=Quicksand
TTITLE2=Boom Boom
TTITLE3=Freight Train
TTITLE4=Rock In It
TTITLE5=Just My Eyes
TTITLE6=Eddy
TTITLE7=Baby From Space
TTITLE8=Vices
TTITLE9=Who Are You?
TTITLE10=My House
TTITLE11=Road Trip
EXTD=
EXTT0=
EXTT1=
EXTT2=
EXTT3=
EXTT4=
EXTT5=
EXTT6=
EXTT7=
EXTT8=
EXTT9=
EXTT10=
EXTT11=
PLAYORDER=
